<svg width="28" height="28" viewBox="0 0 28 28" fill="none" xmlns="http://www.w3.org/2000/svg">
<path d="M20.9644 12.6663C21.5561 12.6663 22.0358 12.1794 22.0358 11.5788C22.0358 10.9782 21.5561 10.4913 20.9644 10.4913C20.3726 10.4913 19.8929 10.9782 19.8929 11.5788C19.8929 12.1794 20.3726 12.6663 20.9644 12.6663Z" fill="#A2A9B0"/>
<path d="M23.4286 2.335H22.0358V1.2475C22.0358 0.646877 21.5561 0.160004 20.9643 0.160004C20.3726 0.160004 19.8929 0.646877 19.8929 1.2475V2.335H15.0179V1.2475C15.0179 0.646877 14.5382 0.160004 13.9465 0.160004C13.3547 0.160004 12.8751 0.646877 12.8751 1.2475V2.335H8.05362V1.2475C8.05362 0.646877 7.57394 0.160004 6.98219 0.160004C6.39044 0.160004 5.91077 0.646877 5.91077 1.2475V2.335H4.57148C2.20834 2.335 0.285767 4.28641 0.285767 6.685V23.65C0.285767 26.0486 2.20834 28 4.57148 28H12.7679C13.3597 28 13.8393 27.5131 13.8393 26.9125C13.8393 26.3119 13.3597 25.825 12.7679 25.825H4.57148C3.38991 25.825 2.42862 24.8493 2.42862 23.65V6.685C2.42862 5.48571 3.38991 4.51 4.57148 4.51H5.91077V5.5975C5.91077 6.19813 6.39044 6.685 6.98219 6.685C7.57394 6.685 8.05362 6.19813 8.05362 5.5975V4.51H12.8751V5.5975C12.8751 6.19813 13.3547 6.685 13.9465 6.685C14.5382 6.685 15.0179 6.19813 15.0179 5.5975V4.51H19.8929V5.5975C19.8929 6.19813 20.3726 6.685 20.9643 6.685C21.5561 6.685 22.0358 6.19813 22.0358 5.5975V4.51H23.4286C24.6102 4.51 25.5715 5.48571 25.5715 6.685V12.8838C25.5715 13.4844 26.0512 13.9713 26.6429 13.9713C27.2347 13.9713 27.7143 13.4844 27.7143 12.8838V6.685C27.7143 4.28641 25.7918 2.335 23.4286 2.335Z" fill="#A2A9B0"/>
<path d="M21.2321 14.8413C17.6579 14.8413 14.75 17.7927 14.75 21.4206C14.75 25.0485 17.6579 28 21.2321 28C24.8064 28 27.7143 25.0485 27.7143 21.4206C27.7143 17.7927 24.8064 14.8413 21.2321 14.8413ZM21.2321 25.825C18.8395 25.825 16.8929 23.8492 16.8929 21.4206C16.8929 18.992 18.8395 17.0163 21.2321 17.0163C23.6248 17.0163 25.5714 18.992 25.5714 21.4206C25.5714 23.8492 23.6248 25.825 21.2321 25.825Z" fill="#A2A9B0"/>
<path d="M22.7858 20.3331H22.3036V19.1912C22.3036 18.5906 21.8239 18.1037 21.2322 18.1037C20.6404 18.1037 20.1608 18.5906 20.1608 19.1912V21.4206C20.1608 22.0212 20.6404 22.5081 21.2322 22.5081H22.7858C23.3775 22.5081 23.8572 22.0212 23.8572 21.4206C23.8572 20.82 23.3775 20.3331 22.7858 20.3331Z" fill="#A2A9B0"/>
<path d="M16.3036 12.6663C16.8953 12.6663 17.375 12.1794 17.375 11.5788C17.375 10.9782 16.8953 10.4913 16.3036 10.4913C15.7119 10.4913 15.2322 10.9782 15.2322 11.5788C15.2322 12.1794 15.7119 12.6663 16.3036 12.6663Z" fill="#A2A9B0"/>
<path d="M11.643 17.3969C12.2347 17.3969 12.7144 16.91 12.7144 16.3094C12.7144 15.7088 12.2347 15.2219 11.643 15.2219C11.0512 15.2219 10.5715 15.7088 10.5715 16.3094C10.5715 16.91 11.0512 17.3969 11.643 17.3969Z" fill="#A2A9B0"/>
<path d="M6.9822 12.6663C7.57393 12.6663 8.05362 12.1794 8.05362 11.5788C8.05362 10.9782 7.57393 10.4913 6.9822 10.4913C6.39046 10.4913 5.91077 10.9782 5.91077 11.5788C5.91077 12.1794 6.39046 12.6663 6.9822 12.6663Z" fill="#A2A9B0"/>
<path d="M6.9822 17.3969C7.57393 17.3969 8.05362 16.91 8.05362 16.3094C8.05362 15.7088 7.57393 15.2219 6.9822 15.2219C6.39046 15.2219 5.91077 15.7088 5.91077 16.3094C5.91077 16.91 6.39046 17.3969 6.9822 17.3969Z" fill="#A2A9B0"/>
<path d="M6.9822 22.1275C7.57393 22.1275 8.05362 21.6406 8.05362 21.04C8.05362 20.4394 7.57393 19.9525 6.9822 19.9525C6.39046 19.9525 5.91077 20.4394 5.91077 21.04C5.91077 21.6406 6.39046 22.1275 6.9822 22.1275Z" fill="#A2A9B0"/>
<path d="M11.643 22.1275C12.2347 22.1275 12.7144 21.6406 12.7144 21.04C12.7144 20.4394 12.2347 19.9525 11.643 19.9525C11.0512 19.9525 10.5715 20.4394 10.5715 21.04C10.5715 21.6406 11.0512 22.1275 11.643 22.1275Z" fill="#A2A9B0"/>
<path d="M11.643 12.6663C12.2347 12.6663 12.7144 12.1794 12.7144 11.5788C12.7144 10.9782 12.2347 10.4913 11.643 10.4913C11.0512 10.4913 10.5715 10.9782 10.5715 11.5788C10.5715 12.1794 11.0512 12.6663 11.643 12.6663Z" fill="#A2A9B0"/>
</svg>
