<svg width="898" height="972" viewBox="0 0 898 972" fill="none" xmlns="http://www.w3.org/2000/svg">
<path d="M694.83 272.193C718.496 250.755 752.054 240.291 782.709 248.798C814.591 257.688 838.502 287.59 832.841 322.66C829.959 340.589 824.891 358.475 833.699 375.702C841.608 391.185 859.103 396.395 872.284 405.647C901.816 426.404 905.821 467.323 884.056 495.481C877.486 507.732 867.415 517.551 855.24 523.575C824.748 538.59 787.982 533.826 757.694 520.619C699.326 495.098 656.286 433.741 656.756 367.003C657.001 332.167 669.079 295.587 694.83 272.193Z" fill="#06CBFF" fill-opacity="0.15"/>
<path d="M56.6491 543.372C46.4874 524.005 42.9697 501.614 46.6758 479.888C50.6406 453.963 62.9232 429.633 64.4151 403.325C65.11 391.521 62.3714 379.505 65.11 367.829C67.5765 357.711 73.3588 348.805 81.4595 342.648C89.3717 336.597 98.7151 332.896 108.492 331.94C118.268 330.985 128.11 332.812 136.966 337.225C193.25 364.129 181.703 438.693 214.811 483.121C216.467 485.285 217.284 488.017 217.1 490.777C226.583 509.599 232.039 530.25 220.758 550.326C209.722 569.935 188.529 583.397 168.031 589.671C125.215 602.772 78.4349 584.418 56.6491 543.372Z" fill="#06CBFF" fill-opacity="0.15"/>
<path d="M380.284 2.94437C419.891 -8.54013 455.635 16.6407 492.79 25.9134C515.27 31.5493 538.712 26.2324 561.172 31.9959C570.093 34.3449 578.436 38.6333 585.65 44.579C592.864 50.5247 598.786 57.9928 603.027 66.4919C619.683 100.073 605.765 138.589 575.621 156.241C556.819 178.891 523.302 179.21 503.519 201.711C474.764 234.442 491.747 277.339 484.247 316.386C477.523 351.371 448.053 372.83 414.148 367.152C380.243 361.473 357.579 328.402 352.551 294.842C349.996 275.341 351.388 255.499 356.639 236.59C361.012 219.767 374.439 195.288 363.199 178.593C358.866 172.213 350.405 170.086 344.969 164.599C338.511 158.219 335.343 148.946 332.462 140.376C326.044 121.405 322.407 100.775 324.287 80.6349C327.25 46.5642 347.197 12.5999 380.284 2.94437Z" fill="#06CBFF" fill-opacity="0.15"/>
<path fill-rule="evenodd" clip-rule="evenodd" d="M450.924 528.911C450.924 520.259 437.859 513.261 421.754 513.261C405.648 513.261 392.583 520.259 392.583 528.911C392.583 537.562 405.648 544.547 421.754 544.547C437.859 544.547 450.924 537.575 450.924 528.911Z" fill="#08888D"/>
<path fill-rule="evenodd" clip-rule="evenodd" d="M496.505 892.551L487.652 922.247L450.924 913.506L454.526 875.744L496.505 892.551Z" fill="#E73D8E"/>
<path fill-rule="evenodd" clip-rule="evenodd" d="M593.993 532.41H35.4002C33.9689 532.41 32.5961 533.003 31.584 534.057C30.5718 535.112 30.0033 536.542 30.0033 538.034V548.212C30.0033 549.704 30.5718 551.134 31.584 552.189C32.5961 553.243 33.9689 553.836 35.4002 553.836H593.993C595.424 553.836 596.797 553.243 597.809 552.189C598.821 551.134 599.39 549.704 599.39 548.212V538.034C599.39 536.542 598.821 535.112 597.809 534.057C596.797 533.003 595.424 532.41 593.993 532.41Z" fill="#1EA2A7"/>
<path d="M517.946 554.344L630.951 915.451" stroke="#1EA2A7" stroke-width="2" stroke-linecap="round" stroke-linejoin="round"/>
<path d="M426.235 554.344L539.191 915.451" stroke="#1EA2A7" stroke-width="2" stroke-linecap="round" stroke-linejoin="round"/>
<path d="M426.235 554.344L313.291 915.451" stroke="#1EA2A7" stroke-width="2" stroke-linecap="round" stroke-linejoin="round"/>
<path d="M517.946 554.344L405.002 915.451" stroke="#1EA2A7" stroke-width="2" stroke-linecap="round" stroke-linejoin="round"/>
<path fill-rule="evenodd" clip-rule="evenodd" d="M619.01 856.34L630.902 884.331L597.984 899.026L583.331 870.73L619.01 856.34Z" fill="#E73D8E"/>
<path fill-rule="evenodd" clip-rule="evenodd" d="M631.66 881.748L596.861 897.448C596.861 897.448 553.49 939.791 533.478 950.109C533.539 959.512 534.699 963.876 541.634 966.56C544.736 967.756 600.793 944.371 600.793 944.371L610.195 933.862L646.459 916.482L631.66 881.748Z" fill="#6A3416"/>
<path d="M610.645 874.369C610.645 873.456 610.386 872.563 609.899 871.803C609.411 871.044 608.719 870.452 607.909 870.102C607.099 869.753 606.208 869.661 605.348 869.839C604.489 870.017 603.699 870.457 603.079 871.103C602.459 871.749 602.037 872.572 601.866 873.468C601.695 874.364 601.783 875.292 602.118 876.136C602.454 876.98 603.022 877.702 603.751 878.209C604.48 878.717 605.337 878.988 606.213 878.988C606.796 878.989 607.373 878.871 607.911 878.639C608.45 878.408 608.939 878.068 609.351 877.638C609.763 877.209 610.089 876.7 610.311 876.138C610.534 875.577 610.647 874.976 610.645 874.369V874.369Z" stroke="white" stroke-width="2" stroke-linecap="round" stroke-linejoin="round"/>
<path d="M627.41 880.387C627.41 879.471 627.149 878.575 626.66 877.813C626.171 877.051 625.476 876.457 624.664 876.107C623.851 875.757 622.957 875.666 622.094 875.846C621.232 876.026 620.44 876.468 619.819 877.117C619.197 877.766 618.775 878.592 618.605 879.491C618.435 880.391 618.525 881.322 618.863 882.168C619.201 883.014 619.773 883.737 620.505 884.244C621.238 884.751 622.098 885.021 622.978 885.018C624.154 885.015 625.282 884.525 626.113 883.657C626.944 882.789 627.41 881.613 627.41 880.387V880.387Z" stroke="white" stroke-width="2" stroke-linecap="round" stroke-linejoin="round"/>
<path d="M604.432 888.517C604.432 887.604 604.172 886.711 603.685 885.952C603.198 885.192 602.505 884.6 601.696 884.25C600.886 883.901 599.994 883.809 599.135 883.988C598.275 884.166 597.485 884.606 596.865 885.252C596.245 885.898 595.823 886.72 595.652 887.616C595.481 888.512 595.569 889.441 595.904 890.285C596.24 891.129 596.808 891.85 597.537 892.357C598.266 892.865 599.123 893.136 599.999 893.136C601.175 893.136 602.302 892.649 603.133 891.783C603.965 890.917 604.432 889.742 604.432 888.517Z" stroke="white" stroke-width="2" stroke-linecap="round" stroke-linejoin="round"/>
<path fill-rule="evenodd" clip-rule="evenodd" d="M649.193 909.802L613.698 926.253C612.775 926.672 612.049 927.455 611.679 928.43C611.308 929.405 611.323 930.493 611.72 931.457L614.821 938.722C615.029 939.194 615.324 939.618 615.69 939.971C616.055 940.323 616.484 940.597 616.951 940.777C617.419 940.957 617.915 941.038 618.413 941.018C618.911 940.997 619.4 940.874 619.852 940.656L655.371 924.205C655.829 924 656.243 923.703 656.59 923.331C656.937 922.959 657.21 922.519 657.394 922.037C657.578 921.555 657.668 921.039 657.661 920.521C657.653 920.002 657.547 919.49 657.349 919.014L654.26 911.749C654.051 911.273 653.754 910.846 653.386 910.49C653.018 910.135 652.586 909.859 652.115 909.678C651.644 909.497 651.143 909.415 650.642 909.436C650.141 909.458 649.648 909.582 649.193 909.802Z" fill="#3C1B09"/>
<path fill-rule="evenodd" clip-rule="evenodd" d="M709.231 588.468C628.388 564.739 512.415 577.882 487.396 614.08C478.459 627.006 481.487 647.236 483.733 654.857C485.98 662.478 580.585 873.975 580.585 873.975L623.003 857.167L581.317 685.405C581.317 685.405 719.28 591.394 709.231 588.468Z" fill="#C4C4C4"/>
<path d="M607.985 863.109L559.157 699.159" stroke="#8D8D8D" stroke-width="2" stroke-linecap="round" stroke-linejoin="round"/>
<path d="M618.741 839.533L573.222 857.346" stroke="#8D8D8D" stroke-width="2" stroke-linecap="round" stroke-linejoin="round"/>
<path fill-rule="evenodd" clip-rule="evenodd" d="M488.385 919.511L451.925 908.671C451.925 908.671 392.62 912.78 370.862 907.539C365.184 914.854 363.389 918.989 367.198 925.656C368.871 928.621 426.455 947.565 426.455 947.565L440.118 945.644L478.69 956.166L488.385 919.511Z" fill="#6A3416"/>
<path fill-rule="evenodd" clip-rule="evenodd" d="M484.88 952.806L447.42 942.08C446.942 941.937 446.441 941.892 445.947 941.95C445.453 942.007 444.974 942.166 444.539 942.417C444.103 942.667 443.719 943.005 443.409 943.41C443.099 943.815 442.868 944.28 442.731 944.778L440.704 952.412C440.577 952.914 440.547 953.437 440.614 953.951C440.682 954.466 440.846 954.961 441.098 955.409C441.35 955.857 441.684 956.249 442.082 956.562C442.479 956.875 442.932 957.103 443.415 957.234L480.875 967.959C481.353 968.103 481.854 968.148 482.348 968.09C482.842 968.032 483.321 967.874 483.756 967.623C484.192 967.373 484.576 967.035 484.886 966.63C485.196 966.225 485.427 965.76 485.564 965.262L487.591 957.628C487.718 957.126 487.748 956.603 487.681 956.088C487.613 955.574 487.449 955.079 487.197 954.631C486.945 954.183 486.611 953.791 486.213 953.478C485.816 953.165 485.363 952.936 484.88 952.806Z" fill="#3C1B09"/>
<path d="M472.098 906.215C472.1 905.298 471.841 904.401 471.354 903.637C470.866 902.874 470.172 902.278 469.36 901.926C468.547 901.574 467.652 901.481 466.789 901.66C465.926 901.838 465.133 902.279 464.51 902.928C463.888 903.576 463.465 904.403 463.293 905.302C463.122 906.202 463.211 907.134 463.549 907.981C463.887 908.827 464.459 909.551 465.192 910.059C465.924 910.566 466.785 910.836 467.665 910.834C468.841 910.834 469.968 910.347 470.799 909.481C471.631 908.615 472.098 907.44 472.098 906.215Z" stroke="white" stroke-width="2" stroke-linecap="round" stroke-linejoin="round"/>
<path d="M464.148 891.277C464.151 890.36 463.892 889.463 463.404 888.699C462.917 887.936 462.223 887.34 461.41 886.988C460.598 886.636 459.703 886.543 458.84 886.722C457.977 886.9 457.183 887.341 456.561 887.99C455.939 888.638 455.515 889.465 455.344 890.364C455.173 891.264 455.262 892.196 455.6 893.043C455.938 893.889 456.51 894.613 457.242 895.12C457.975 895.628 458.836 895.898 459.716 895.896C460.891 895.892 462.016 895.405 462.847 894.539C463.677 893.674 464.145 892.501 464.148 891.277V891.277Z" stroke="white" stroke-width="2" stroke-linecap="round" stroke-linejoin="round"/>
<path d="M488.385 902.919C488.385 902.005 488.125 901.112 487.638 900.353C487.151 899.593 486.459 899.001 485.649 898.652C484.839 898.302 483.948 898.211 483.088 898.389C482.228 898.567 481.438 899.007 480.818 899.653C480.198 900.299 479.776 901.122 479.605 902.018C479.434 902.914 479.522 903.842 479.858 904.686C480.193 905.53 480.761 906.251 481.49 906.759C482.219 907.266 483.076 907.537 483.952 907.537C485.128 907.537 486.255 907.051 487.087 906.185C487.918 905.318 488.385 904.144 488.385 902.919Z" stroke="white" stroke-width="2" stroke-linecap="round" stroke-linejoin="round"/>
<path fill-rule="evenodd" clip-rule="evenodd" d="M775.484 692.326H590.133C583.776 692.326 577.679 694.957 573.184 699.641C568.689 704.325 566.164 710.678 566.164 717.302C566.164 723.926 568.689 730.278 573.184 734.962C577.679 739.646 583.776 742.277 590.133 742.277H775.484C781.84 742.277 787.937 739.646 792.432 734.962C796.927 730.278 799.452 723.926 799.452 717.302V717.302C799.452 710.678 796.927 704.325 792.432 699.641C787.937 694.957 781.84 692.326 775.484 692.326Z" fill="#1EA2A7"/>
<path fill-rule="evenodd" clip-rule="evenodd" d="M690.574 725.217H675.043C673.812 725.217 672.632 725.726 671.762 726.633C670.892 727.54 670.403 728.769 670.403 730.052V908.939C670.403 910.221 670.892 911.451 671.762 912.357C672.632 913.264 673.812 913.773 675.043 913.773H690.574C691.805 913.773 692.985 913.264 693.855 912.357C694.725 911.451 695.214 910.221 695.214 908.939V730.052C695.214 728.769 694.725 727.54 693.855 726.633C692.985 725.726 691.805 725.217 690.574 725.217Z" fill="#1EA2A7"/>
<path fill-rule="evenodd" clip-rule="evenodd" d="M696.826 856.34H668.742C666.715 856.34 664.771 857.179 663.337 858.673C661.904 860.167 661.099 862.192 661.099 864.305V907.487C661.099 908.538 661.298 909.579 661.686 910.55C662.074 911.52 662.643 912.401 663.359 913.142C664.075 913.882 664.925 914.467 665.859 914.864C666.794 915.26 667.794 915.46 668.803 915.452H696.887C698.914 915.452 700.858 914.613 702.292 913.119C703.725 911.625 704.53 909.599 704.53 907.487V864.305C704.53 863.253 704.331 862.213 703.943 861.242C703.555 860.272 702.986 859.391 702.27 858.65C701.554 857.91 700.704 857.325 699.769 856.928C698.835 856.532 697.835 856.332 696.826 856.34Z" fill="#1EA2A7"/>
<path d="M775.863 946.203V937.768C775.863 931.849 773.607 926.173 769.59 921.988C765.574 917.803 760.127 915.452 754.447 915.452H682.809" stroke="#1EA2A7" stroke-width="2" stroke-linecap="round" stroke-linejoin="round"/>
<path d="M589.962 946.203V937.768C589.964 934.835 590.52 931.93 591.599 929.221C592.678 926.512 594.259 924.051 596.251 921.978C598.244 919.906 600.608 918.263 603.21 917.143C605.812 916.023 608.6 915.448 611.415 915.452H683.028" stroke="#1EA2A7" stroke-width="2" stroke-linecap="round" stroke-linejoin="round"/>
<path d="M717.912 946.203V936.025C717.912 924.663 712.234 915.452 705.238 915.452H660.378C653.381 915.452 647.703 924.663 647.703 936.025V946.203" stroke="#1EA2A7" stroke-width="2" stroke-linecap="round" stroke-linejoin="round"/>
<path d="M787.597 958.443C787.597 956.024 786.908 953.661 785.619 951.65C784.33 949.639 782.497 948.072 780.353 947.147C778.209 946.221 775.85 945.979 773.573 946.451C771.297 946.923 769.207 948.087 767.565 949.797C765.924 951.507 764.807 953.686 764.354 956.057C763.901 958.429 764.134 960.888 765.022 963.122C765.91 965.356 767.414 967.266 769.344 968.609C771.273 969.953 773.542 970.67 775.863 970.67C778.974 970.666 781.956 969.377 784.156 967.085C786.356 964.793 787.593 961.684 787.597 958.443V958.443Z" stroke="#1EA2A7" stroke-width="2" stroke-linecap="round" stroke-linejoin="round"/>
<path d="M729.646 958.443C729.646 956.024 728.958 953.661 727.669 951.65C726.38 949.639 724.547 948.072 722.403 947.147C720.259 946.221 717.899 945.979 715.623 946.451C713.347 946.923 711.256 948.087 709.615 949.797C707.974 951.507 706.857 953.686 706.404 956.057C705.951 958.429 706.184 960.888 707.072 963.122C707.96 965.356 709.464 967.266 711.393 968.609C713.323 969.953 715.592 970.67 717.912 970.67C721.024 970.666 724.006 969.377 726.206 967.085C728.406 964.793 729.643 961.684 729.646 958.443V958.443Z" stroke="#1EA2A7" stroke-width="2" stroke-linecap="round" stroke-linejoin="round"/>
<path d="M647.705 946.204C645.382 946.201 643.11 946.917 641.176 948.26C639.243 949.604 637.736 951.514 636.845 953.751C635.954 955.987 635.719 958.448 636.171 960.823C636.623 963.198 637.741 965.38 639.383 967.093C641.025 968.806 643.118 969.974 645.397 970.447C647.676 970.92 650.038 970.678 652.185 969.752C654.333 968.826 656.168 967.258 657.459 965.245C658.75 963.231 659.439 960.865 659.439 958.443C659.439 955.199 658.204 952.088 656.003 949.793C653.803 947.498 650.819 946.207 647.705 946.204" stroke="#1EA2A7" stroke-width="2" stroke-linecap="round" stroke-linejoin="round"/>
<path d="M601.647 958.443C601.647 956.024 600.959 953.661 599.67 951.65C598.381 949.639 596.548 948.072 594.404 947.147C592.26 946.221 589.9 945.979 587.624 946.451C585.348 946.923 583.257 948.087 581.616 949.797C579.975 951.507 578.858 953.686 578.405 956.057C577.952 958.429 578.185 960.888 579.073 963.122C579.961 965.356 581.465 967.266 583.394 968.609C585.324 969.953 587.593 970.67 589.913 970.67C593.025 970.666 596.007 969.377 598.207 967.085C600.407 964.793 601.644 961.684 601.647 958.443V958.443Z" stroke="#1EA2A7" stroke-width="2" stroke-linecap="round" stroke-linejoin="round"/>
<path fill-rule="evenodd" clip-rule="evenodd" d="M768.536 538.682C842.493 699.654 693.223 703.993 640.842 703.192C588.46 702.39 574.674 698.28 560.498 694.705C555.968 709.006 501.67 894.204 501.67 894.204L453.989 879.19C453.989 879.19 490.436 643.915 498.666 628.023C521.267 584.332 654.957 581.966 671.868 583.022C688.779 584.078 759.158 518.274 768.536 538.682Z" fill="#C4C4C4"/>
<path d="M763.919 560.681C814.58 692.429 597.311 684.49 549.789 669.4C542.683 690.584 483.854 887.487 483.854 887.487" stroke="#8D8D8D" stroke-width="2" stroke-linecap="round" stroke-linejoin="round"/>
<path d="M489.179 669.641C504.465 666.363 518.24 657.8 528.269 645.34C538.298 632.88 543.993 617.255 544.43 601" stroke="#8D8D8D" stroke-width="2" stroke-linecap="round" stroke-linejoin="round"/>
<path d="M583.245 699.541C575.583 698.365 567.989 696.751 560.498 694.706C558.617 700.635 548.177 735.967 536.614 775.282" stroke="#8D8D8D" stroke-width="2" stroke-linecap="round" stroke-linejoin="round"/>
<path d="M489.533 667.071C493.514 646.371 496.859 631.612 498.667 628.024C519.912 586.979 639.279 582.399 667.595 582.882" stroke="#8D8D8D" stroke-width="2" stroke-linecap="round" stroke-linejoin="round"/>
<path d="M456.272 864.635L505.772 880.221" stroke="#8D8D8D" stroke-width="2" stroke-linecap="round" stroke-linejoin="round"/>
<path fill-rule="evenodd" clip-rule="evenodd" d="M678.976 289.068C678.976 283.853 677.491 278.756 674.711 274.42C671.931 270.085 667.979 266.706 663.355 264.711C658.731 262.716 653.644 262.195 648.736 263.213C643.828 264.231 639.32 266.743 635.782 270.431C632.245 274.12 629.836 278.818 628.861 283.933C627.886 289.047 628.389 294.348 630.306 299.165C632.223 303.982 635.467 308.098 639.629 310.993C643.791 313.889 648.684 315.433 653.688 315.43C657.01 315.43 660.299 314.748 663.368 313.423C666.437 312.098 669.225 310.156 671.573 307.708C673.922 305.26 675.784 302.354 677.054 299.155C678.324 295.957 678.977 292.529 678.976 289.068Z" fill="#6A3416"/>
<path fill-rule="evenodd" clip-rule="evenodd" d="M439.888 506.086C435.724 502.523 424.442 493.834 420.827 493.884C417.213 493.935 406.273 504.648 406.029 507.46C405.784 510.272 409.264 514.712 411.34 515.03C413.416 515.348 420.095 508.669 421.56 509.267C423.025 509.865 426.249 513.427 427.189 515.005C428.129 516.583 444.039 509.585 439.888 506.086Z" fill="#F77F89"/>
<path fill-rule="evenodd" clip-rule="evenodd" d="M589.095 436.236L564.113 462.802C564.113 462.802 545.212 420.523 532.049 398.155C534.711 394.16 539.375 378.244 538.777 375.254C538.178 372.264 524.43 344.044 521.109 345.685C517.787 347.327 514.686 352.836 516.383 358.408C514.417 351.067 511.096 340.914 508.166 339.909C505.235 338.904 499.069 340.227 499.338 345.38C497.934 342.008 495.455 339.642 492.622 339.515C490.18 339.4 485.198 341.576 484.856 344.782C484.441 348.79 489.936 358.358 490.607 359.719C488.043 356.08 488.068 355.902 486.529 355.902C483.44 356.016 478.214 360.8 480.766 367.709C483.318 374.618 495.931 406.858 505.699 408.232C505.247 414.492 534.357 501.836 534.357 501.836L578.46 500.004L610.585 455.727L589.095 436.236Z" fill="#F77F89"/>
<path fill-rule="evenodd" clip-rule="evenodd" d="M675.982 340.265C757.094 340.367 784.201 538.746 775.727 552.347C769.512 562.322 695.933 591.648 670.719 582.64C661.818 579.46 638.655 529.903 625.542 479.901C611.561 467.942 585.101 445.294 580.791 440.93C582.012 431.35 603.27 392.748 625.285 375.648C632.892 357.543 647.007 340.265 675.982 340.265Z" fill="#123148"/>
<path fill-rule="evenodd" clip-rule="evenodd" d="M655.006 475.054C655.006 475.054 616.287 525.946 606.104 530.081C595.921 534.216 485.931 532.893 477.897 531.913C469.863 530.933 471.328 537.32 464.063 537.728C456.541 538.16 452.207 531.226 451.181 527.727C446.59 533.046 438.494 541.227 433.183 538.377C429.422 536.341 429.373 534.56 431.962 531.748C428.299 533.949 421.681 537.181 419.007 535.005C414.709 531.519 414.306 528.262 415.759 525.552C420.24 517.167 434.673 505.296 438.104 503.922C442.06 502.294 454.111 506.772 459.911 507.141C486.2 508.833 552.489 491.797 574.235 490.767C577.434 484.405 610.585 442.635 613.149 438.462C622.246 446.567 655.006 475.054 655.006 475.054Z" fill="#F77F89"/>
<path fill-rule="evenodd" clip-rule="evenodd" d="M665.812 299.463C665.815 291.545 663.564 283.804 659.344 277.22C655.124 270.636 649.125 265.503 642.105 262.472C635.085 259.441 627.361 258.647 619.908 260.191C612.456 261.735 605.61 265.548 600.237 271.146C594.864 276.745 591.205 283.878 589.723 291.644C588.242 299.41 589.003 307.459 591.912 314.773C594.821 322.088 599.747 328.339 606.066 332.736C612.384 337.133 619.813 339.479 627.411 339.477C637.595 339.473 647.361 335.256 654.561 327.753C661.762 320.25 665.809 310.074 665.812 299.463Z" fill="#F77F89"/>
<path fill-rule="evenodd" clip-rule="evenodd" d="M660.66 290.747C660.501 296.969 673.005 336.309 677.938 343.841C675.495 349.859 651.6 364.948 640.623 361.729C639.402 354.096 635.312 338.751 632.784 335.342C630.257 331.932 660.819 284.475 660.66 290.747Z" fill="#F77F89"/>
<path fill-rule="evenodd" clip-rule="evenodd" d="M616.764 215.095C620.415 215.107 624.019 215.946 627.327 217.554C630.635 219.162 633.568 221.501 635.922 224.409C639.08 223.168 642.425 222.521 645.8 222.5C650.324 222.433 654.799 223.484 658.858 225.567C662.917 227.65 666.444 230.705 669.151 234.483C671.858 238.261 673.667 242.653 674.43 247.3C675.193 251.947 674.889 256.716 673.542 261.217C675.248 262.852 676.61 264.839 677.543 267.05C678.476 269.262 678.96 271.651 678.963 274.067C678.935 278.224 677.518 282.241 674.956 285.427C672.393 288.613 668.844 290.769 664.921 291.523C664.726 290.543 664.726 289.856 664.421 288.737C663.59 285.759 651.16 280.314 649.768 281.294C648.673 282.113 647.425 282.685 646.105 282.973C645.991 282.98 645.877 282.98 645.763 282.973C640.601 282.959 635.536 281.507 631.094 278.766C626.652 276.026 622.994 272.097 620.5 267.387C619.254 267.616 617.993 267.747 616.727 267.782C616.727 272.996 615.244 278.093 612.464 282.428C609.684 286.763 605.733 290.142 601.11 292.137C596.487 294.133 591.4 294.655 586.492 293.637C581.585 292.62 577.077 290.109 573.538 286.423C570 282.736 567.591 278.038 566.615 272.925C565.638 267.811 566.139 262.51 568.054 257.693C569.969 252.876 573.212 248.759 577.372 245.862C581.533 242.965 586.424 241.419 591.428 241.419C591.433 237.957 592.092 234.53 593.368 231.334C594.644 228.137 596.511 225.234 598.864 222.79C601.217 220.345 604.008 218.408 607.08 217.087C610.151 215.767 613.442 215.09 616.764 215.095Z" fill="#6A3416"/>
<path fill-rule="evenodd" clip-rule="evenodd" d="M675.994 275.212C675.987 272.149 675.108 269.156 673.47 266.613C671.831 264.069 669.506 262.089 666.788 260.922C664.07 259.755 661.081 259.454 658.198 260.056C655.316 260.658 652.669 262.137 650.593 264.306C648.517 266.475 647.104 269.236 646.533 272.241C645.962 275.246 646.259 278.36 647.386 281.189C648.512 284.019 650.419 286.437 652.863 288.138C655.308 289.839 658.182 290.747 661.122 290.747C663.078 290.747 665.015 290.345 666.822 289.564C668.629 288.782 670.27 287.638 671.651 286.195C673.033 284.751 674.127 283.039 674.873 281.154C675.618 279.27 675.999 277.25 675.994 275.212Z" fill="#F77F89"/>
<path d="M752.346 544.548C753.946 519.942 731.381 428.526 714.495 401.324" stroke="#1EA2A7" stroke-width="2" stroke-linecap="round" stroke-linejoin="round"/>
<path d="M702.344 422.966C698.412 431.427 678.961 468.897 662.477 482.116C656.189 475.907 610.865 435.664 610.865 435.664C616.653 424.455 644.48 389.314 653.503 380.7" stroke="#1EA2A7" stroke-width="2" stroke-linecap="round" stroke-linejoin="round"/>
<path d="M671.013 473.566L616.531 426.656" stroke="#1EA2A7" stroke-width="2" stroke-linecap="round" stroke-linejoin="round"/>
<path d="M631.502 363.995C631.879 365.252 632.448 366.437 633.187 367.506C639.659 376.921 657.901 375.891 673.933 365.216" stroke="#1EA2A7" stroke-width="2" stroke-linecap="round" stroke-linejoin="round"/>
<path d="M625.128 375.737C622.039 384.109 617.802 403.639 619.597 422.329" stroke="#1EA2A7" stroke-width="2" stroke-linecap="round" stroke-linejoin="round"/>
<path d="M605.066 449.315L584.553 430.345" stroke="#1EA2A7" stroke-width="2" stroke-linecap="round" stroke-linejoin="round"/>
<path d="M694.445 527.396C687.669 526.289 650.672 527.078 657.509 529.496C664.347 531.913 677.143 533.631 671.441 535.03C665.964 536.368 660.415 537.362 654.823 538.007" stroke="#1EA2A7" stroke-width="2" stroke-linecap="round" stroke-linejoin="round"/>
<path d="M607.045 300.518C607.424 304.042 606.679 311.969 604.127 315.43" stroke="#B5545C" stroke-width="2" stroke-linecap="round" stroke-linejoin="round"/>
<path fill-rule="evenodd" clip-rule="evenodd" d="M627.63 295.836C626.409 292.82 623.967 291.001 622.27 291.777C620.573 292.553 620.231 295.594 621.488 298.635C622.746 301.676 625.151 303.47 626.849 302.694C628.546 301.918 628.9 298.864 627.63 295.836Z" fill="#B5545C"/>
<path fill-rule="evenodd" clip-rule="evenodd" d="M598.63 302.72C597.409 299.704 594.967 297.885 593.27 298.648C591.573 299.411 591.231 302.465 592.488 305.506C593.746 308.547 596.151 310.341 597.849 309.565C599.546 308.788 599.9 305.722 598.63 302.72Z" fill="#B5545C"/>
<path d="M627.777 324.858C630.121 324.083 632.194 322.605 633.736 320.609C635.278 318.613 636.22 316.188 636.446 313.636" stroke="#B5545C" stroke-width="2" stroke-linecap="round" stroke-linejoin="round"/>
<path d="M634.481 338.802C639.577 337.807 644.427 335.747 648.74 332.747C653.052 329.747 656.737 325.869 659.573 321.346" stroke="#B5545C" stroke-width="2" stroke-linecap="round" stroke-linejoin="round"/>
<path d="M655.935 289.729C657.593 290.38 659.352 290.712 661.124 290.709C662.478 290.709 663.825 290.516 665.129 290.137" stroke="#B5545C" stroke-width="2" stroke-linecap="round" stroke-linejoin="round"/>
<path d="M663.993 284.55C665.56 284.106 666.977 283.215 668.083 281.977C669.189 280.738 669.941 279.202 670.253 277.542C670.566 275.882 670.426 274.164 669.851 272.582C669.276 271 668.287 269.617 666.997 268.589C665.707 267.562 664.168 266.931 662.552 266.767C660.936 266.604 659.308 266.914 657.852 267.664C656.397 268.414 655.171 269.572 654.315 271.01C653.458 272.447 653.004 274.105 653.004 275.797" stroke="#B5545C" stroke-width="2" stroke-linecap="round" stroke-linejoin="round"/>
<path d="M533.27 497.231L573.893 490.768L599.107 457.026" stroke="#B5545C" stroke-width="2" stroke-linecap="round" stroke-linejoin="round"/>
<path d="M517.08 394.504C515.566 391.069 511.366 383.537 512.819 380.254C514.272 376.972 524.333 372.531 523.1 369.389C521.866 366.246 516.274 357.747 516.274 357.747" stroke="#B5545C" stroke-width="2" stroke-linecap="round" stroke-linejoin="round"/>
<path d="M499.4 345.354L507.104 361.767" stroke="#B5545C" stroke-width="2" stroke-linecap="round" stroke-linejoin="round"/>
<path d="M490.241 359.707L496.505 368.969" stroke="#B5545C" stroke-width="2" stroke-linecap="round" stroke-linejoin="round"/>
<path d="M437.309 504.318L426.124 513.225" stroke="#B5545C" stroke-width="2" stroke-linecap="round" stroke-linejoin="round"/>
<path d="M432.121 531.214L440.473 523.173" stroke="#B5545C" stroke-width="2" stroke-linecap="round" stroke-linejoin="round"/>
<path fill-rule="evenodd" clip-rule="evenodd" d="M462.132 219.714H476.211C476.87 219.714 477.432 220.528 477.432 221.533V230.681C477.432 231.686 476.882 232.488 476.211 232.488H462.132C461.461 232.488 460.911 231.686 460.911 230.681V221.533C460.923 220.528 461.461 219.714 462.132 219.714Z" fill="#FF3274"/>
<path fill-rule="evenodd" clip-rule="evenodd" d="M483.511 226.687V232.31C483.511 232.476 483.402 232.54 483.279 232.463L478.591 229.677L473.914 226.865C473.78 226.789 473.78 226.661 473.914 226.585L478.591 223.761L483.279 220.949C483.302 220.931 483.33 220.921 483.358 220.92C483.386 220.918 483.415 220.925 483.439 220.94C483.464 220.955 483.484 220.977 483.497 221.003C483.509 221.03 483.515 221.059 483.511 221.089V226.687Z" fill="#FF3274"/>
<path d="M492.978 226.102C492.978 221.824 491.76 217.642 489.479 214.085C487.198 210.528 483.957 207.756 480.164 206.119C476.371 204.482 472.197 204.054 468.171 204.888C464.144 205.723 460.445 207.783 457.543 210.808C454.64 213.833 452.663 217.687 451.862 221.882C451.061 226.078 451.472 230.427 453.043 234.379C454.614 238.331 457.274 241.709 460.688 244.086C464.102 246.463 468.115 247.731 472.22 247.731C477.725 247.731 483.005 245.452 486.898 241.396C490.791 237.34 492.978 231.838 492.978 226.102Z" stroke="#FF3274" stroke-width="2" stroke-linecap="round" stroke-linejoin="round"/>
<path d="M763.932 173.694H466.504C462.536 173.693 458.607 174.506 454.942 176.087C451.276 177.668 447.945 179.987 445.14 182.91C442.334 185.833 440.109 189.304 438.592 193.124C437.074 196.943 436.294 201.037 436.296 205.171V363.027C436.296 371.375 439.478 379.382 445.143 385.285C450.808 391.188 458.492 394.504 466.504 394.504H763.932C771.942 394.501 779.622 391.183 785.285 385.28C790.947 379.377 794.128 371.373 794.128 363.027V205.171C794.13 201.038 793.35 196.945 791.833 193.127C790.316 189.308 788.092 185.838 785.288 182.915C782.484 179.991 779.155 177.673 775.49 176.091C771.826 174.509 767.898 173.694 763.932 173.694V173.694Z" stroke="#9B9B9B" stroke-width="2" stroke-linecap="round" stroke-linejoin="round"/>
<path d="M438.239 193.886H791.883" stroke="#9B9B9B" stroke-width="2" stroke-linecap="round" stroke-linejoin="round"/>
<path d="M772.419 184.166C772.421 183.28 772.171 182.413 771.701 181.674C771.23 180.936 770.559 180.36 769.774 180.019C768.989 179.678 768.124 179.588 767.29 179.759C766.455 179.931 765.688 180.356 765.086 180.982C764.484 181.608 764.073 182.406 763.906 183.275C763.74 184.144 763.824 185.045 764.149 185.864C764.474 186.683 765.025 187.384 765.732 187.876C766.439 188.369 767.27 188.632 768.121 188.632C769.259 188.632 770.35 188.162 771.156 187.325C771.961 186.488 772.416 185.352 772.419 184.166V184.166Z" stroke="#FF3274" stroke-width="2" stroke-linecap="round" stroke-linejoin="round"/>
<path d="M755.496 184.166C755.498 183.28 755.248 182.413 754.778 181.674C754.307 180.936 753.636 180.36 752.851 180.019C752.066 179.678 751.202 179.588 750.367 179.759C749.533 179.931 748.766 180.356 748.163 180.982C747.561 181.608 747.15 182.406 746.984 183.275C746.817 184.144 746.901 185.045 747.226 185.864C747.551 186.683 748.102 187.384 748.809 187.876C749.516 188.369 750.348 188.632 751.198 188.632C751.762 188.634 752.321 188.519 752.842 188.296C753.363 188.072 753.837 187.743 754.236 187.328C754.636 186.914 754.953 186.421 755.169 185.878C755.385 185.335 755.496 184.754 755.496 184.166V184.166Z" stroke="#FF3274" stroke-width="2" stroke-linecap="round" stroke-linejoin="round"/>
<path d="M738.536 184.166C738.539 183.28 738.289 182.413 737.818 181.674C737.347 180.936 736.677 180.36 735.891 180.019C735.106 179.678 734.242 179.588 733.407 179.759C732.573 179.931 731.806 180.356 731.203 180.982C730.601 181.608 730.19 182.406 730.024 183.275C729.857 184.144 729.941 185.045 730.266 185.864C730.591 186.683 731.142 187.384 731.849 187.876C732.556 188.369 733.388 188.632 734.238 188.632C735.376 188.632 736.467 188.162 737.273 187.325C738.079 186.488 738.533 185.352 738.536 184.166V184.166Z" stroke="#FF3274" stroke-width="2" stroke-linecap="round" stroke-linejoin="round"/>
<path d="M205.791 554.344L318.748 915.451" stroke="#1EA2A7" stroke-width="2" stroke-linecap="round" stroke-linejoin="round"/>
<path d="M114.081 554.344L227.038 915.451" stroke="#1EA2A7" stroke-width="2" stroke-linecap="round" stroke-linejoin="round"/>
<path d="M114.082 554.344L1.13763 915.451" stroke="#1EA2A7" stroke-width="2" stroke-linecap="round" stroke-linejoin="round"/>
<path d="M205.792 554.344L92.8476 915.451" stroke="#1EA2A7" stroke-width="2" stroke-linecap="round" stroke-linejoin="round"/>
<path fill-rule="evenodd" clip-rule="evenodd" d="M401.4 319.247H226.318C222.694 319.247 219.219 320.747 216.657 323.417C214.094 326.087 212.655 329.708 212.655 333.484V484.139C212.655 487.915 214.094 491.536 216.657 494.206C219.219 496.876 222.694 498.376 226.318 498.376H401.4C405.02 498.369 408.489 496.866 411.046 494.197C413.603 491.528 415.039 487.91 415.039 484.139V333.484C415.039 329.713 413.603 326.095 411.046 323.426C408.489 320.757 405.02 319.254 401.4 319.247Z" fill="#1EA2A7"/>
<path fill-rule="evenodd" clip-rule="evenodd" d="M401.399 319.233C403.193 319.232 404.969 319.598 406.627 320.313C408.285 321.027 409.791 322.074 411.06 323.395C412.329 324.716 413.335 326.285 414.022 328.011C414.709 329.738 415.063 331.589 415.062 333.458V484.138C415.046 487.903 413.6 491.508 411.039 494.164C408.479 496.82 405.012 498.311 401.399 498.311H392.62C392.693 497.446 392.889 496.606 392.889 495.767V319.233H401.399Z" fill="#08888D"/>
<path fill-rule="evenodd" clip-rule="evenodd" d="M338.126 453.959H279.016L245.915 532.41H307.112L338.126 453.959Z" fill="#08888D"/>
<path fill-rule="evenodd" clip-rule="evenodd" d="M140.663 477.128H91.9688V532.41H140.663V477.128Z" fill="#08888D"/>
<path d="M104.948 504.762C104.948 502.173 104.211 499.641 102.831 497.488C101.45 495.335 99.4879 493.657 97.192 492.666C94.8962 491.676 92.37 491.416 89.9328 491.921C87.4955 492.427 85.2567 493.674 83.4996 495.505C81.7424 497.335 80.5458 499.668 80.061 502.208C79.5762 504.747 79.825 507.38 80.776 509.772C81.727 512.164 83.3374 514.209 85.4036 515.648C87.4698 517.086 89.8989 517.854 92.3839 517.854C95.7162 517.854 98.9119 516.475 101.268 514.019C103.624 511.564 104.948 508.234 104.948 504.762V504.762Z" stroke="#08888D" stroke-width="2" stroke-linecap="round" stroke-linejoin="round"/>
<path d="M140.663 486.542H92.3839" stroke="#1EA2A7" stroke-width="2" stroke-linecap="round" stroke-linejoin="round"/>
<path opacity="0.25" fill-rule="evenodd" clip-rule="evenodd" d="M763.774 173.694H466.345C458.334 173.694 450.65 177.011 444.985 182.914C439.32 188.817 436.137 196.823 436.137 205.171V363.027C436.137 371.375 439.32 379.382 444.985 385.285C450.65 391.188 458.334 394.504 466.345 394.504H763.774C771.783 394.501 779.464 391.183 785.126 385.28C790.789 379.377 793.97 371.373 793.97 363.027V205.171C793.971 201.038 793.191 196.945 791.675 193.127C790.158 189.308 787.934 185.838 785.13 182.915C782.326 179.991 778.996 177.673 775.332 176.091C771.668 174.509 767.74 173.694 763.774 173.694Z" fill="white"/>
</svg>
